<svg width="200" height="1080" viewBox="0 0 200 1080" fill="none" xmlns="http://www.w3.org/2000/svg">
<path opacity="0.3" d="M523.152 -2.08796L523.152 207.872C523.152 215.418 518.903 222.312 512.181 225.684L424.809 269.508C411.625 276.121 396.095 266.508 396.095 251.697L396.095 -2.08796C396.095 -13.091 404.985 -22 415.938 -22L503.309 -22C514.262 -22 523.152 -13.091 523.152 -2.08796ZM326.566 -2.08796L326.566 291.138C326.566 298.684 322.316 305.578 315.595 308.949L228.223 352.773C215.039 359.386 199.508 349.774 199.508 334.962L199.508 -2.08796C199.508 -13.091 208.398 -22 219.351 -22L306.723 -22C317.676 -22 326.566 -13.091 326.566 -2.08796ZM129.979 -2.08798L129.979 389.753C129.979 397.294 125.735 404.184 119.021 407.558L31.649 451.46C18.464 458.085 2.92167 448.473 2.92167 433.655L2.92169 -2.08798C2.92169 -13.0911 11.8116 -22 22.7646 -22L110.136 -22C121.089 -22 129.979 -13.0911 129.979 -2.08798ZM523.152 355.474L523.152 443.427C523.152 450.972 518.903 457.867 512.181 461.238L424.809 505.062C411.625 511.675 396.095 502.063 396.095 487.251L396.095 399.298C396.095 391.752 400.344 384.858 407.066 381.487L494.438 337.663C507.622 331.05 523.152 340.662 523.152 355.474ZM523.152 833.156L523.152 1058.06C523.152 1072.87 507.622 1082.48 494.438 1075.87L407.066 1032.05C400.344 1028.68 396.095 1021.78 396.095 1014.24L396.095 876.98C396.095 869.435 400.344 862.541 407.066 859.169L494.438 815.345C507.622 808.732 523.152 818.344 523.152 833.156ZM14.0117 808.814L494.293 571.928C507.527 565.401 522.999 575.129 522.888 589.947L522.161 687.781C522.105 695.303 517.83 702.148 511.116 705.481L143.246 888.071C135.119 892.105 129.979 900.412 129.979 909.502L129.979 1013.14C129.979 1020.69 125.73 1027.58 119.008 1030.95L31.6363 1074.78C18.4522 1081.39 2.92164 1071.78 2.92164 1056.96L2.92165 826.684C2.92166 819.09 7.22494 812.161 14.0117 808.814ZM326.566 438.739L326.566 537.649C326.566 545.194 322.316 552.088 315.595 555.46L31.6364 697.888C18.4522 704.501 2.92166 694.889 2.92166 680.077L2.92167 581.168C2.92167 573.622 7.1713 566.728 13.8929 563.356L297.851 420.928C311.035 414.315 326.566 423.928 326.566 438.739Z" stroke="#5A27EE" stroke-width="4"/>
</svg>
